<svg xml:space="preserve" role="img" viewBox="0 0 24 24" style="clip-rule:evenodd;fill-rule:evenodd;stroke-linejoin:round;stroke-miterlimit:2" xmlns="http://www.w3.org/2000/svg"><title>Asahi Linux</title><g style="display:inline"><g style="clip-rule:evenodd;fill-rule:evenodd;stroke-linejoin:round;stroke-miterlimit:2"><g style="clip-rule:evenodd;display:inline;fill:#000000;fill-opacity:1;fill-rule:evenodd;stroke-linejoin:round;stroke-miterlimit:2"><path d="m347.5 26.25-45.264 22.633L347.5 139.41ZM390 25l-37.5 28.846v21.155H400Zm-37.5 83.397v52.193l-23.035-46.068-100.89 34.264L350 199.616l121.426-50.83Zm-128.73 43.799L100 372.916l247.5 175.315V203.99l-123.465-51.682Zm252.46 0-.265.111-122.1 51.112 163.8 227.796a2.5 2.5 0 0 1 .01.016L600 372.917ZM390 325.001V443.21l42.566-59.103zm62.453 86.8-96.182 133.756 127.461-90.283z" style="color:#000000;clip-rule:evenodd;display:inline;overflow:visible;fill:#000000;fill-opacity:1;fill-rule:evenodd;stroke:none;stroke-width:1;stroke-linecap:round;stroke-linejoin:round;stroke-miterlimit:2;stroke-dasharray:none;stroke-opacity:0.5;paint-order:stroke markers fill" transform="translate(-3.985 -1.2)scale(.0459)"/></g></g></g></svg>